# xmcd CD database file
#
# Track frame offsets:
#	150
#	13822
#	28427
#	42740
#	67209
#	84127
#	100383
#	117166
#	135147
#	163707
#	187733
#	199223
#	212116
#	224828
#
# Disc length: 3304 seconds
#
# Revision: 0
# Processed by: cddbd v1.5.1PL0 Copyright (c) Steve Scherf et al.
# Submitted via: cdripper 1.0.7
#
DISCID=d20ce60e
DTITLE=Paul Oscher and Steve Guyger - Living Legends
DYEAR=2000
DGENRE=Blues
TTITLE0=Gotta Go Now
TTITLE1=Hide Away
TTITLE2=All Night
TTITLE3=Sometimes I Wonder
TTITLE4=Ode to Billie Joe
TTITLE5=Take a Little Walk With Me 
TTITLE6=My Love Is 
TTITLE7=What Have I Done
TTITLE8=Sugar Mama
TTITLE9=The Things I Used to Do
TTITLE10=Thunder
TTITLE11=Sandra Lee
TTITLE12=Have Mercy
TTITLE13=I'll Go Out Walking
EXTD=YEAR: 2000
EXTT0=
EXTT1=
EXTT2=
EXTT3=
EXTT4=
EXTT5=
EXTT6=
EXTT7=
EXTT8=
EXTT9=
EXTT10=
EXTT11=
EXTT12=
EXTT13=
PLAYORDER=
